<?xml version="1.0" encoding="UTF-8" standalone="no"?><svg xmlns="http://www.w3.org/2000/svg" xmlns:xlink="http://www.w3.org/1999/xlink" contentStyleType="text/css" height="686px" preserveAspectRatio="none" style="width:1805px;height:686px;background:#FFFFFF;" version="1.1" viewBox="0 0 1805 686" width="1805px" zoomAndPan="magnify"><defs/><g><!--MD5=[5d4cd377749310b66bf14896f5cd8d9b]
cluster model--><g id="cluster_model"><path d="M8.5,6 L57.5,6 A3.75,3.75 0 0 1 60,8.5 L67,28.2969 L1795.5,28.2969 A2.5,2.5 0 0 1 1798,30.7969 L1798,676.5 A2.5,2.5 0 0 1 1795.5,679 L8.5,679 A2.5,2.5 0 0 1 6,676.5 L6,8.5 A2.5,2.5 0 0 1 8.5,6 " fill="none" style="stroke:#000000;stroke-width:1.5;"/><line style="stroke:#000000;stroke-width:1.5;" x1="6" x2="67" y1="28.2969" y2="28.2969"/><text fill="#000000" font-family="sans-serif" font-size="14" font-weight="bold" lengthAdjust="spacing" textLength="48" x="10" y="20.9951">model</text></g><!--MD5=[ddcb5d95a6352e8f89d566e42fe9c5b5]
class InterestPayable--><g id="elem_InterestPayable"><rect codeLine="2" fill="#F1F1F1" height="64.2969" id="InterestPayable" rx="2.5" ry="2.5" style="stroke:#181818;stroke-width:0.5;" width="145" x="1445.5" y="353"/><ellipse cx="1463.65" cy="369" fill="#B4A7E5" rx="11" ry="11" style="stroke:#181818;stroke-width:1.0;"/><path d="M1459.5719,364.7656 L1459.5719,362.6094 L1466.9625,362.6094 L1466.9625,364.7656 L1464.4938,364.7656 L1464.4938,372.8438 L1466.9625,372.8438 L1466.9625,375 L1459.5719,375 L1459.5719,372.8438 L1462.0406,372.8438 L1462.0406,364.7656 L1459.5719,364.7656 Z " fill="#000000"/><text fill="#000000" font-family="sans-serif" font-size="14" font-style="italic" lengthAdjust="spacing" textLength="106" x="1478.35" y="373.8467">InterestPayable</text><line style="stroke:#181818;stroke-width:0.5;" x1="1446.5" x2="1589.5" y1="385" y2="385"/><line style="stroke:#181818;stroke-width:0.5;" x1="1446.5" x2="1589.5" y1="393" y2="393"/><ellipse cx="1456.5" cy="406.6484" fill="#84BE84" rx="3" ry="3" style="stroke:#038048;stroke-width:1.0;"/><text fill="#000000" font-family="sans-serif" font-size="14" lengthAdjust="spacing" textLength="119" x="1465.5" y="409.9951">void payInterest()</text></g><!--MD5=[f9a29335b499db729be669fd1bd54958]
class Account--><g id="elem_Account"><rect codeLine="6" fill="#F1F1F1" height="178.375" id="Account" rx="2.5" ry="2.5" style="stroke:#181818;stroke-width:0.5;" width="396" x="953" y="296"/><ellipse cx="1118.25" cy="312" fill="#A9DCDF" rx="11" ry="11" style="stroke:#181818;stroke-width:1.0;"/><path d="M1118.3594,307.3438 L1117.2031,312.4219 L1119.5313,312.4219 L1118.3594,307.3438 Z M1116.875,305.1094 L1119.8594,305.1094 L1123.2188,317.5 L1120.7656,317.5 L1120,314.4375 L1116.7188,314.4375 L1115.9688,317.5 L1113.5313,317.5 L1116.875,305.1094 Z " fill="#000000"/><text fill="#000000" font-family="sans-serif" font-size="14" font-style="italic" lengthAdjust="spacing" textLength="57" x="1138.75" y="316.8467">Account</text><line style="stroke:#181818;stroke-width:0.5;" x1="954" x2="1348" y1="328" y2="328"/><rect fill="none" height="6" style="stroke:#C82930;stroke-width:1.0;" width="6" x="961" y="338.6484"/><text fill="#000000" font-family="sans-serif" font-size="14" lengthAdjust="spacing" textLength="155" x="973" y="344.9951">String accountNumber</text><rect fill="none" height="6" style="stroke:#C82930;stroke-width:1.0;" width="6" x="961" y="354.9453"/><text fill="#000000" font-family="sans-serif" font-size="14" lengthAdjust="spacing" textLength="106" x="973" y="361.292">double balance</text><rect fill="none" height="6" style="stroke:#C82930;stroke-width:1.0;" width="6" x="961" y="371.2422"/><text fill="#000000" font-family="sans-serif" font-size="14" lengthAdjust="spacing" textLength="92" x="973" y="377.5889">String branch</text><rect fill="none" height="6" style="stroke:#C82930;stroke-width:1.0;" width="6" x="961" y="387.5391"/><text fill="#000000" font-family="sans-serif" font-size="14" lengthAdjust="spacing" textLength="217" x="973" y="393.8857">List&lt;Transaction&gt; transactions</text><line style="stroke:#181818;stroke-width:0.5;" x1="954" x2="1348" y1="401.1875" y2="401.1875"/><ellipse cx="964" cy="414.8359" fill="#84BE84" rx="3" ry="3" style="stroke:#038048;stroke-width:1.0;"/><text fill="#000000" font-family="sans-serif" font-size="14" lengthAdjust="spacing" textLength="370" x="973" y="418.1826">Account(String accountNumber, double initialDeposit)</text><ellipse cx="964" cy="431.1328" fill="#84BE84" rx="3" ry="3" style="stroke:#038048;stroke-width:1.0;"/><text fill="#000000" font-family="sans-serif" font-size="14" lengthAdjust="spacing" textLength="199" x="973" y="434.4795">void deposit(double amount)</text><ellipse cx="964" cy="447.4297" fill="#84BE84" rx="3" ry="3" style="stroke:#038048;stroke-width:1.0;"/><text fill="#000000" font-family="sans-serif" font-size="14" lengthAdjust="spacing" textLength="208" x="973" y="450.7764">void withdraw(double amount)</text><ellipse cx="964" cy="463.7266" fill="#84BE84" rx="3" ry="3" style="stroke:#038048;stroke-width:1.0;"/><text fill="#000000" font-family="sans-serif" font-size="14" lengthAdjust="spacing" textLength="140" x="973" y="467.0732">double getBalance()</text></g><!--MD5=[349f039c2061beb49da3e58edbd04752]
class SavingsAccount--><g id="elem_SavingsAccount"><rect codeLine="17" fill="#F1F1F1" height="80.5938" id="SavingsAccount" rx="2.5" ry="2.5" style="stroke:#181818;stroke-width:0.5;" width="381" x="960.5" y="558"/><ellipse cx="1091.75" cy="574" fill="#ADD1B2" rx="11" ry="11" style="stroke:#181818;stroke-width:1.0;"/><path d="M1094.7188,579.6406 Q1094.1406,579.9375 1093.5,580.0781 Q1092.8594,580.2344 1092.1563,580.2344 Q1089.6563,580.2344 1088.3281,578.5938 Q1087.0156,576.9375 1087.0156,573.8125 Q1087.0156,570.6875 1088.3281,569.0313 Q1089.6563,567.375 1092.1563,567.375 Q1092.8594,567.375 1093.5,567.5313 Q1094.1563,567.6875 1094.7188,567.9844 L1094.7188,570.7031 Q1094.0938,570.125 1093.5,569.8594 Q1092.9063,569.5781 1092.2813,569.5781 Q1090.9375,569.5781 1090.25,570.6563 Q1089.5625,571.7188 1089.5625,573.8125 Q1089.5625,575.9063 1090.25,576.9844 Q1090.9375,578.0469 1092.2813,578.0469 Q1092.9063,578.0469 1093.5,577.7813 Q1094.0938,577.5 1094.7188,576.9219 L1094.7188,579.6406 Z " fill="#000000"/><text fill="#000000" font-family="sans-serif" font-size="14" lengthAdjust="spacing" textLength="110" x="1112.25" y="578.8467">SavingsAccount</text><line style="stroke:#181818;stroke-width:0.5;" x1="961.5" x2="1340.5" y1="590" y2="590"/><line style="stroke:#181818;stroke-width:0.5;" x1="961.5" x2="1340.5" y1="598" y2="598"/><ellipse cx="971.5" cy="611.6484" fill="#84BE84" rx="3" ry="3" style="stroke:#038048;stroke-width:1.0;"/><text fill="#000000" font-family="sans-serif" font-size="14" lengthAdjust="spacing" textLength="355" x="980.5" y="614.9951">SavingsAccount(String accNo, double initialDeposit)</text><ellipse cx="971.5" cy="627.9453" fill="#84BE84" rx="3" ry="3" style="stroke:#038048;stroke-width:1.0;"/><text fill="#000000" font-family="sans-serif" font-size="14" lengthAdjust="spacing" textLength="119" x="980.5" y="631.292">void payInterest()</text></g><!--MD5=[9a2ab2f348ed1d1bc01c94e301f22678]
class InvestmentAccount--><g id="elem_InvestmentAccount"><rect codeLine="22" fill="#F1F1F1" height="80.5938" id="InvestmentAccount" rx="2.5" ry="2.5" style="stroke:#181818;stroke-width:0.5;" width="405" x="1376.5" y="558"/><ellipse cx="1507.75" cy="574" fill="#ADD1B2" rx="11" ry="11" style="stroke:#181818;stroke-width:1.0;"/><path d="M1510.7188,579.6406 Q1510.1406,579.9375 1509.5,580.0781 Q1508.8594,580.2344 1508.1563,580.2344 Q1505.6563,580.2344 1504.3281,578.5938 Q1503.0156,576.9375 1503.0156,573.8125 Q1503.0156,570.6875 1504.3281,569.0313 Q1505.6563,567.375 1508.1563,567.375 Q1508.8594,567.375 1509.5,567.5313 Q1510.1563,567.6875 1510.7188,567.9844 L1510.7188,570.7031 Q1510.0938,570.125 1509.5,569.8594 Q1508.9063,569.5781 1508.2813,569.5781 Q1506.9375,569.5781 1506.25,570.6563 Q1505.5625,571.7188 1505.5625,573.8125 Q1505.5625,575.9063 1506.25,576.9844 Q1506.9375,578.0469 1508.2813,578.0469 Q1508.9063,578.0469 1509.5,577.7813 Q1510.0938,577.5 1510.7188,576.9219 L1510.7188,579.6406 Z " fill="#000000"/><text fill="#000000" font-family="sans-serif" font-size="14" lengthAdjust="spacing" textLength="134" x="1528.25" y="578.8467">InvestmentAccount</text><line style="stroke:#181818;stroke-width:0.5;" x1="1377.5" x2="1780.5" y1="590" y2="590"/><line style="stroke:#181818;stroke-width:0.5;" x1="1377.5" x2="1780.5" y1="598" y2="598"/><ellipse cx="1387.5" cy="611.6484" fill="#84BE84" rx="3" ry="3" style="stroke:#038048;stroke-width:1.0;"/><text fill="#000000" font-family="sans-serif" font-size="14" lengthAdjust="spacing" textLength="379" x="1396.5" y="614.9951">InvestmentAccount(String accNo, double initialDeposit)</text><ellipse cx="1387.5" cy="627.9453" fill="#84BE84" rx="3" ry="3" style="stroke:#038048;stroke-width:1.0;"/><text fill="#000000" font-family="sans-serif" font-size="14" lengthAdjust="spacing" textLength="119" x="1396.5" y="631.292">void payInterest()</text></g><!--MD5=[ae3f392b2087a29854ea2889f14ca611]
class ChequeAccount--><g id="elem_ChequeAccount"><rect codeLine="27" fill="#F1F1F1" height="80.5938" id="ChequeAccount" rx="2.5" ry="2.5" style="stroke:#181818;stroke-width:0.5;" width="499" x="22.5" y="558"/><ellipse cx="211.75" cy="574" fill="#ADD1B2" rx="11" ry="11" style="stroke:#181818;stroke-width:1.0;"/><path d="M214.7188,579.6406 Q214.1406,579.9375 213.5,580.0781 Q212.8594,580.2344 212.1563,580.2344 Q209.6563,580.2344 208.3281,578.5938 Q207.0156,576.9375 207.0156,573.8125 Q207.0156,570.6875 208.3281,569.0313 Q209.6563,567.375 212.1563,567.375 Q212.8594,567.375 213.5,567.5313 Q214.1563,567.6875 214.7188,567.9844 L214.7188,570.7031 Q214.0938,570.125 213.5,569.8594 Q212.9063,569.5781 212.2813,569.5781 Q210.9375,569.5781 210.25,570.6563 Q209.5625,571.7188 209.5625,573.8125 Q209.5625,575.9063 210.25,576.9844 Q210.9375,578.0469 212.2813,578.0469 Q212.9063,578.0469 213.5,577.7813 Q214.0938,577.5 214.7188,576.9219 L214.7188,579.6406 Z " fill="#000000"/><text fill="#000000" font-family="sans-serif" font-size="14" lengthAdjust="spacing" textLength="112" x="232.25" y="578.8467">ChequeAccount</text><line style="stroke:#181818;stroke-width:0.5;" x1="23.5" x2="520.5" y1="590" y2="590"/><rect fill="none" height="6" style="stroke:#C82930;stroke-width:1.0;" width="6" x="30.5" y="600.6484"/><text fill="#000000" font-family="sans-serif" font-size="14" lengthAdjust="spacing" textLength="108" x="42.5" y="606.9951">String employer</text><line style="stroke:#181818;stroke-width:0.5;" x1="23.5" x2="520.5" y1="614.2969" y2="614.2969"/><ellipse cx="33.5" cy="627.9453" fill="#84BE84" rx="3" ry="3" style="stroke:#038048;stroke-width:1.0;"/><text fill="#000000" font-family="sans-serif" font-size="14" lengthAdjust="spacing" textLength="473" x="42.5" y="631.292">ChequeAccount(String accNo, double initialDeposit, String employer)</text></g><!--MD5=[2ce0c9fb7f55b1e256ab28a8ea6b25ec]
class Customer--><g id="elem_Customer"><rect codeLine="32" fill="#F1F1F1" height="194.6719" id="Customer" rx="2.5" ry="2.5" style="stroke:#181818;stroke-width:0.5;" width="232" x="1035" y="41"/><ellipse cx="1112.75" cy="57" fill="#ADD1B2" rx="11" ry="11" style="stroke:#181818;stroke-width:1.0;"/><path d="M1115.7188,62.6406 Q1115.1406,62.9375 1114.5,63.0781 Q1113.8594,63.2344 1113.1563,63.2344 Q1110.6563,63.2344 1109.3281,61.5938 Q1108.0156,59.9375 1108.0156,56.8125 Q1108.0156,53.6875 1109.3281,52.0313 Q1110.6563,50.375 1113.1563,50.375 Q1113.8594,50.375 1114.5,50.5313 Q1115.1563,50.6875 1115.7188,50.9844 L1115.7188,53.7031 Q1115.0938,53.125 1114.5,52.8594 Q1113.9063,52.5781 1113.2813,52.5781 Q1111.9375,52.5781 1111.25,53.6563 Q1110.5625,54.7188 1110.5625,56.8125 Q1110.5625,58.9063 1111.25,59.9844 Q1111.9375,61.0469 1113.2813,61.0469 Q1113.9063,61.0469 1114.5,60.7813 Q1115.0938,60.5 1115.7188,59.9219 L1115.7188,62.6406 Z " fill="#000000"/><text fill="#000000" font-family="sans-serif" font-size="14" lengthAdjust="spacing" textLength="68" x="1133.25" y="61.8467">Customer</text><line style="stroke:#181818;stroke-width:0.5;" x1="1036" x2="1266" y1="73" y2="73"/><rect fill="none" height="6" style="stroke:#C82930;stroke-width:1.0;" width="6" x="1043" y="83.6484"/><text fill="#000000" font-family="sans-serif" font-size="14" lengthAdjust="spacing" textLength="56" x="1055" y="89.9951">String id</text><rect fill="none" height="6" style="stroke:#C82930;stroke-width:1.0;" width="6" x="1043" y="99.9453"/><text fill="#000000" font-family="sans-serif" font-size="14" lengthAdjust="spacing" textLength="109" x="1055" y="106.292">String firstName</text><rect fill="none" height="6" style="stroke:#C82930;stroke-width:1.0;" width="6" x="1043" y="116.2422"/><text fill="#000000" font-family="sans-serif" font-size="14" lengthAdjust="spacing" textLength="108" x="1055" y="122.5889">String lastName</text><rect fill="none" height="6" style="stroke:#C82930;stroke-width:1.0;" width="6" x="1043" y="132.5391"/><text fill="#000000" font-family="sans-serif" font-size="14" lengthAdjust="spacing" textLength="100" x="1055" y="138.8857">String address</text><rect fill="none" height="6" style="stroke:#C82930;stroke-width:1.0;" width="6" x="1043" y="148.8359"/><text fill="#000000" font-family="sans-serif" font-size="14" lengthAdjust="spacing" textLength="89" x="1055" y="155.1826">String phone</text><rect fill="none" height="6" style="stroke:#C82930;stroke-width:1.0;" width="6" x="1043" y="165.1328"/><text fill="#000000" font-family="sans-serif" font-size="14" lengthAdjust="spacing" textLength="139" x="1055" y="171.4795">boolean isEmployed</text><rect fill="none" height="6" style="stroke:#C82930;stroke-width:1.0;" width="6" x="1043" y="181.4297"/><text fill="#000000" font-family="sans-serif" font-size="14" lengthAdjust="spacing" textLength="172" x="1055" y="187.7764">List&lt;Account&gt; accounts</text><line style="stroke:#181818;stroke-width:0.5;" x1="1036" x2="1266" y1="195.0781" y2="195.0781"/><ellipse cx="1046" cy="208.7266" fill="#84BE84" rx="3" ry="3" style="stroke:#038048;stroke-width:1.0;"/><text fill="#000000" font-family="sans-serif" font-size="14" lengthAdjust="spacing" textLength="182" x="1055" y="212.0732">void addAccount(Account)</text><ellipse cx="1046" cy="225.0234" fill="#84BE84" rx="3" ry="3" style="stroke:#038048;stroke-width:1.0;"/><text fill="#000000" font-family="sans-serif" font-size="14" lengthAdjust="spacing" textLength="206" x="1055" y="228.3701">List&lt;Account&gt; getAccounts()</text></g><!--MD5=[4555bb1b0911a5adf28ce6dbe60fed2e]
class Transaction--><g id="elem_Transaction"><rect codeLine="44" fill="#F1F1F1" height="129.4844" id="Transaction" rx="2.5" ry="2.5" style="stroke:#181818;stroke-width:0.5;" width="368" x="557" y="534"/><ellipse cx="696.25" cy="550" fill="#ADD1B2" rx="11" ry="11" style="stroke:#181818;stroke-width:1.0;"/><path d="M699.2188,555.6406 Q698.6406,555.9375 698,556.0781 Q697.3594,556.2344 696.6563,556.2344 Q694.1563,556.2344 692.8281,554.5938 Q691.5156,552.9375 691.5156,549.8125 Q691.5156,546.6875 692.8281,545.0313 Q694.1563,543.375 696.6563,543.375 Q697.3594,543.375 698,543.5313 Q698.6563,543.6875 699.2188,543.9844 L699.2188,546.7031 Q698.5938,546.125 698,545.8594 Q697.4063,545.5781 696.7813,545.5781 Q695.4375,545.5781 694.75,546.6563 Q694.0625,547.7188 694.0625,549.8125 Q694.0625,551.9063 694.75,552.9844 Q695.4375,554.0469 696.7813,554.0469 Q697.4063,554.0469 698,553.7813 Q698.5938,553.5 699.2188,552.9219 L699.2188,555.6406 Z " fill="#000000"/><text fill="#000000" font-family="sans-serif" font-size="14" lengthAdjust="spacing" textLength="81" x="716.75" y="554.8467">Transaction</text><line style="stroke:#181818;stroke-width:0.5;" x1="558" x2="924" y1="566" y2="566"/><rect fill="none" height="6" style="stroke:#C82930;stroke-width:1.0;" width="6" x="565" y="576.6484"/><text fill="#000000" font-family="sans-serif" font-size="14" lengthAdjust="spacing" textLength="56" x="577" y="582.9951">String id</text><rect fill="none" height="6" style="stroke:#C82930;stroke-width:1.0;" width="6" x="565" y="592.9453"/><text fill="#000000" font-family="sans-serif" font-size="14" lengthAdjust="spacing" textLength="110" x="577" y="599.292">Date timestamp</text><rect fill="none" height="6" style="stroke:#C82930;stroke-width:1.0;" width="6" x="565" y="609.2422"/><text fill="#000000" font-family="sans-serif" font-size="14" lengthAdjust="spacing" textLength="105" x="577" y="615.5889">double amount</text><rect fill="none" height="6" style="stroke:#C82930;stroke-width:1.0;" width="6" x="565" y="625.5391"/><text fill="#000000" font-family="sans-serif" font-size="14" lengthAdjust="spacing" textLength="74" x="577" y="631.8857">String type</text><line style="stroke:#181818;stroke-width:0.5;" x1="558" x2="924" y1="639.1875" y2="639.1875"/><ellipse cx="568" cy="652.8359" fill="#84BE84" rx="3" ry="3" style="stroke:#038048;stroke-width:1.0;"/><text fill="#000000" font-family="sans-serif" font-size="14" lengthAdjust="spacing" textLength="342" x="577" y="656.1826">Transaction(String id, double amount, String type)</text></g><!--MD5=[f662f69f3f8901b144fefdc31cb38f1a]
reverse link Account to SavingsAccount--><g id="link_Account_SavingsAccount"><path d="M1138.25,494.48 C1138.32,517.17 1139.16,539.7 1140.79,557.87 " fill="none" id="Account-backto-SavingsAccount" style="stroke:#181818;stroke-width:1.0;"/><polygon fill="none" points="1131.26,494.11,1138.41,474.16,1145.26,494.22,1131.26,494.11" style="stroke:#181818;stroke-width:1.0;"/></g><!--MD5=[f662f69f3f8901b144fefdc31cb38f1a]
reverse link Account to SavingsAccount--><g id="link_Account_SavingsAccount"><path codeLine="57" d="M1164.5,494.48 C1164.43,517.17 1163.53,539.7 1161.81,557.87 " fill="none" id="Account-backto-SavingsAccount-1" style="stroke:#181818;stroke-width:1.0;"/><polygon fill="none" points="1157.49,494.22,1164.33,474.16,1171.49,494.11,1157.49,494.22" style="stroke:#181818;stroke-width:1.0;"/></g><!--MD5=[9a28cfd6478d94288133105387856347]
reverse link InterestPayable to SavingsAccount--><g id="link_InterestPayable_SavingsAccount"><path d="M1432.38,426.76 C1405.78,441.67 1376.6,458.64 1350,474 C1301.18,502.18 1246,533.72 1205.89,557.88 " fill="none" id="InterestPayable-backto-SavingsAccount" style="stroke:#181818;stroke-width:1.0;stroke-dasharray:7.0,7.0;"/><polygon fill="none" points="1429,420.64,1449.88,417.06,1435.79,432.88,1429,420.64" style="stroke:#181818;stroke-width:1.0;"/></g><!--MD5=[9a28cfd6478d94288133105387856347]
reverse link InterestPayable to SavingsAccount--><g id="link_InterestPayable_SavingsAccount"><path codeLine="55" d="M1463.81,427.62 C1439.66,442.32 1411.09,458.94 1385,474 C1336.18,502.18 1281,533.72 1236.25,557.88 " fill="none" id="InterestPayable-backto-SavingsAccount-1" style="stroke:#181818;stroke-width:1.0;stroke-dasharray:7.0,7.0;"/><polygon fill="none" points="1460.21,421.62,1480.91,417.06,1467.57,433.53,1460.21,421.62" style="stroke:#181818;stroke-width:1.0;"/></g><!--MD5=[cfbc0bcff3760f9d125725759dcec0d5]
reverse link Account to InvestmentAccount--><g id="link_Account_InvestmentAccount"><path d="M1334.5,482.96 C1387.87,509.45 1443.82,536.68 1488.76,557.95 " fill="none" id="Account-backto-InvestmentAccount" style="stroke:#181818;stroke-width:1.0;"/><polygon fill="none" points="1331.3,489.19,1316.51,474.01,1337.54,476.65,1331.3,489.19" style="stroke:#181818;stroke-width:1.0;"/></g><!--MD5=[cfbc0bcff3760f9d125725759dcec0d5]
reverse link Account to InvestmentAccount--><g id="link_Account_InvestmentAccount"><path codeLine="58" d="M1360.66,482.96 C1414.53,509.45 1468.75,536.68 1509.76,557.95 " fill="none" id="Account-backto-InvestmentAccount-1" style="stroke:#181818;stroke-width:1.0;"/><polygon fill="none" points="1357.3,489.1,1342.43,474.01,1363.47,476.54,1357.3,489.1" style="stroke:#181818;stroke-width:1.0;"/></g><!--MD5=[0aa9ca31cbc1efc314bcf0aeb164a115]
reverse link InterestPayable to InvestmentAccount--><g id="link_InterestPayable_InvestmentAccount"><path d="M1521.6,436.9 C1529.82,474.04 1544.43,523.65 1557.36,557.86 " fill="none" id="InterestPayable-backto-InvestmentAccount" style="stroke:#181818;stroke-width:1.0;stroke-dasharray:7.0,7.0;"/><polygon fill="none" points="1514.72,438.19,1517.64,417.21,1528.44,435.44,1514.72,438.19" style="stroke:#181818;stroke-width:1.0;"/></g><!--MD5=[0aa9ca31cbc1efc314bcf0aeb164a115]
reverse link InterestPayable to InvestmentAccount--><g id="link_InterestPayable_InvestmentAccount"><path codeLine="56" d="M1544.14,436.12 C1557.56,473.34 1571.71,523.42 1578.38,557.86 " fill="none" id="InterestPayable-backto-InvestmentAccount-1" style="stroke:#181818;stroke-width:1.0;stroke-dasharray:7.0,7.0;"/><polygon fill="none" points="1537.51,438.39,1536.91,417.21,1550.59,433.39,1537.51,438.39" style="stroke:#181818;stroke-width:1.0;"/></g><!--MD5=[d9eface5e5e8d4ff1d9c8cc4414cad07]
reverse link Account to ChequeAccount--><g id="link_Account_ChequeAccount"><path d="M932.92,435.82 C775.37,473.12 566.52,523.43 426.07,557.98 " fill="none" id="Account-backto-ChequeAccount" style="stroke:#181818;stroke-width:1.0;"/><polygon fill="none" points="931.77,428.9,952.84,431.11,934.99,442.53,931.77,428.9" style="stroke:#181818;stroke-width:1.0;"/></g><!--MD5=[d9eface5e5e8d4ff1d9c8cc4414cad07]
reverse link Account to ChequeAccount--><g id="link_Account_ChequeAccount"><path codeLine="59" d="M933.57,441.21 C783.69,477.83 587.17,525.02 447.3,557.92 " fill="none" id="Account-backto-ChequeAccount-1" style="stroke:#181818;stroke-width:1.0;"/><polygon fill="none" points="931.91,434.41,953,436.46,935.23,448.01,931.91,434.41" style="stroke:#181818;stroke-width:1.0;"/></g><!--MD5=[cc86f912536a41a358bf474feaa8a8fa]
link Customer to Account--><g id="link_Customer_Account"><path codeLine="53" d="M1151,236.13 C1151,255.75 1151,276.3 1151,295.62 " fill="none" id="Customer-Account" style="stroke:#181818;stroke-width:1.0;"/><text fill="#000000" font-family="sans-serif" font-size="13" lengthAdjust="spacing" textLength="8" x="1142.7188" y="255.6051">1</text><text fill="#000000" font-family="sans-serif" font-size="13" lengthAdjust="spacing" textLength="23" x="1127.0836" y="284.9571">0..*</text></g><!--MD5=[6bd399dd209ecb8775ea4fbe013b111a]
link Account to Transaction--><g id="link_Account_Transaction"><path codeLine="54" d="M980.39,474.01 C941.47,494.09 900.85,515.04 864.36,533.86 " fill="none" id="Account-Transaction" style="stroke:#181818;stroke-width:1.0;"/><text fill="#000000" font-family="sans-serif" font-size="13" lengthAdjust="spacing" textLength="8" x="957.3845" y="494.3603">1</text><text fill="#000000" font-family="sans-serif" font-size="13" lengthAdjust="spacing" textLength="23" x="853.5947" y="523.0174">0..*</text></g><!--MD5=[53ecae51d65632c2e8f357457435b073]
@startuml
package model {
  interface InterestPayable {
    +void payInterest()
  }

  abstract class Account {
    -String accountNumber
    -double balance
    -String branch
    -List<Transaction> transactions
    +Account(String accountNumber, double initialDeposit)
    +void deposit(double amount)
    +void withdraw(double amount)
    +double getBalance()
  }

  class SavingsAccount extends Account implements InterestPayable {
    +SavingsAccount(String accNo, double initialDeposit)
    +void payInterest()
  }

  class InvestmentAccount extends Account implements InterestPayable {
    +InvestmentAccount(String accNo, double initialDeposit)
    +void payInterest()
  }

  class ChequeAccount extends Account {
    -String employer
    +ChequeAccount(String accNo, double initialDeposit, String employer)
  }

  class Customer {
    -String id
    -String firstName
    -String lastName
    -String address
    -String phone
    -boolean isEmployed
    -List<Account> accounts
    +void addAccount(Account)
    +List<Account> getAccounts()
  }

  class Transaction {
    -String id
    -Date timestamp
    -double amount
    -String type
    +Transaction(String id, double amount, String type)
  }
}

Customer "1" - - "0..*" Account
Account "1" - - "0..*" Transaction
InterestPayable <|.. SavingsAccount
InterestPayable <|.. InvestmentAccount
Account <|- - SavingsAccount
Account <|- - InvestmentAccount
Account <|- - ChequeAccount
@enduml

PlantUML version 1.2022.7(Mon Aug 22 17:01:30 UTC 2022)
(GPL source distribution)
Java Runtime: OpenJDK Runtime Environment
JVM: OpenJDK 64-Bit Server VM
Default Encoding: UTF-8
Language: en
Country: null
--></g></svg>