<?xml version="1.0" encoding="UTF-8" standalone="no"?><svg xmlns="http://www.w3.org/2000/svg" xmlns:xlink="http://www.w3.org/1999/xlink" contentStyleType="text/css" height="693px" preserveAspectRatio="none" style="width:425px;height:693px;background:#FFFFFF;" version="1.1" viewBox="0 0 425 693" width="425px" zoomAndPan="magnify"><defs/><g><!--MD5=[5a4d7bf98d079ca3634ab9ef8d995f53]
cluster BankSystem--><g id="cluster_BankSystem"><rect fill="none" height="680" rx="2.5" ry="2.5" style="stroke:#181818;stroke-width:1.0;" width="236" x="183" y="7"/><text fill="#000000" font-family="sans-serif" font-size="14" font-weight="bold" lengthAdjust="spacing" textLength="96" x="253" y="21.9951">BankSystem</text></g><g id="elem_Open Account"><ellipse cx="300.8073" cy="373.8615" fill="#F1F1F1" rx="72.3073" ry="16.8615" style="stroke:#181818;stroke-width:0.5;"/><text fill="#000000" font-family="sans-serif" font-size="14" lengthAdjust="spacing" textLength="99" x="248.3073" y="377.609">Open Account</text></g><g id="elem_Deposit Funds"><ellipse cx="301.0678" cy="59.0136" fill="#F1F1F1" rx="73.0678" ry="17.0136" style="stroke:#181818;stroke-width:0.5;"/><text fill="#000000" font-family="sans-serif" font-size="14" lengthAdjust="spacing" textLength="101" x="247.5678" y="62.7611">Deposit Funds</text></g><g id="elem_Withdraw Funds"><ellipse cx="301.0612" cy="223.2122" fill="#F1F1F1" rx="76.5612" ry="17.7122" style="stroke:#181818;stroke-width:0.5;"/><text fill="#000000" font-family="sans-serif" font-size="14" lengthAdjust="spacing" textLength="110" x="243.0612" y="226.9598">Withdraw Funds</text></g><g id="elem_View Account Balance"><ellipse cx="301.0638" cy="148.8128" fill="#F1F1F1" rx="94.5638" ry="21.3128" style="stroke:#181818;stroke-width:0.5;"/><text fill="#000000" font-family="sans-serif" font-size="14" lengthAdjust="spacing" textLength="152" x="225.0638" y="151.6594">View Account Balance</text></g><g id="elem_View Transaction History"><ellipse cx="300.7923" cy="298.7585" fill="#F1F1F1" rx="101.7923" ry="22.7585" style="stroke:#181818;stroke-width:0.5;"/><text fill="#000000" font-family="sans-serif" font-size="14" lengthAdjust="spacing" textLength="168" x="216.7923" y="301.6051">View Transaction History</text></g><g id="elem_Post Interest"><ellipse cx="301.24" cy="582.048" fill="#F1F1F1" rx="68.24" ry="16.048" style="stroke:#181818;stroke-width:0.5;"/><text fill="#000000" font-family="sans-serif" font-size="14" lengthAdjust="spacing" textLength="88" x="254.24" y="585.7956">Post Interest</text></g><g id="elem_Create Customer"><ellipse cx="300.7839" cy="511.8568" fill="#F1F1F1" rx="79.7839" ry="18.3568" style="stroke:#181818;stroke-width:0.5;"/><text fill="#000000" font-family="sans-serif" font-size="14" lengthAdjust="spacing" textLength="118" x="240.0356" y="515.2613">Create Customer</text></g><g id="elem_Manage Accounts"><ellipse cx="300.788" cy="651.8576" fill="#F1F1F1" rx="82.288" ry="18.8576" style="stroke:#181818;stroke-width:0.5;"/><text fill="#000000" font-family="sans-serif" font-size="14" lengthAdjust="spacing" textLength="124" x="237.9505" y="654.9838">Manage Accounts</text></g><g id="elem_Run Reports"><ellipse cx="300.8807" cy="441.9761" fill="#F1F1F1" rx="67.8807" ry="15.9761" style="stroke:#181818;stroke-width:0.5;"/><text fill="#000000" font-family="sans-serif" font-size="14" lengthAdjust="spacing" textLength="87" x="254.3807" y="445.7237">Run Reports</text></g><!--MD5=[ae78ca0dd1f49bdd788e5556d70823ac]
entity Customer--><g id="elem_Customer"><ellipse cx="40" cy="193.5" fill="#F1F1F1" rx="8" ry="8" style="stroke:#181818;stroke-width:0.5;"/><path d="M40,201.5 L40,228.5 M27,209.5 L53,209.5 M40,228.5 L27,243.5 M40,228.5 L53,243.5 " fill="none" style="stroke:#181818;stroke-width:0.5;"/><text fill="#000000" font-family="sans-serif" font-size="14" lengthAdjust="spacing" textLength="68" x="6" y="257.9951">Customer</text></g><!--MD5=[75bcab72e22e3bde62d8cef4f1a817de]
entity Staff--><g id="elem_Staff"><ellipse cx="40" cy="512.5" fill="#F1F1F1" rx="8" ry="8" style="stroke:#181818;stroke-width:0.5;"/><path d="M40,520.5 L40,547.5 M27,528.5 L53,528.5 M40,547.5 L27,562.5 M40,547.5 L53,562.5 " fill="none" style="stroke:#181818;stroke-width:0.5;"/><text fill="#000000" font-family="sans-serif" font-size="14" lengthAdjust="spacing" textLength="65" x="7.5" y="576.9951">BankStaff</text></g><!--MD5=[69c3ab5b2c0ee588029c398ef9721ad1]
link Customer to Open Account--><g id="link_Customer_Open Account"><path d="M74.16,259.21 C99.5,284.88 136.52,318.31 175,339 C196.04,350.31 221.09,358.26 243.22,363.68 " fill="none" id="Customer-Open Account" style="stroke:#181818;stroke-width:1.0;"/></g><!--MD5=[74117ccb9773cdef5c573dbea7373f69]
link Customer to Deposit Funds--><g id="link_Customer_Deposit Funds"><path d="M74.32,189.85 C83.71,180.9 94.07,171.38 104,163 C134.09,137.6 140.72,129.37 175,110 C201.63,94.95 233.59,81.99 258.53,72.9 " fill="none" id="Customer-Deposit Funds" style="stroke:#181818;stroke-width:1.0;"/></g><!--MD5=[9054cbd954262d5ffc9e60ae1c2f776a]
link Customer to Withdraw Funds--><g id="link_Customer_Withdraw Funds"><path d="M74.07,223 C111.7,223 174.42,223 224.23,223 " fill="none" id="Customer-Withdraw Funds" style="stroke:#181818;stroke-width:1.0;"/></g><!--MD5=[2e29b727d5b6bc36c414fc7c1f3b6bb1]
link Customer to View Account Balance--><g id="link_Customer_View Account Balance"><path d="M74.32,208.15 C83.8,204.22 94.21,200.2 104,197 C145.29,183.51 192.57,171.83 230.34,163.36 " fill="none" id="Customer-View Account Balance" style="stroke:#181818;stroke-width:1.0;"/></g><!--MD5=[718dee980dfc0d314bb3a13cbd5f89fd]
link Customer to View Transaction History--><g id="link_Customer_View Transaction History"><path d="M74.07,232.7 C115.32,244.81 186.69,265.75 238.19,280.86 " fill="none" id="Customer-View Transaction History" style="stroke:#181818;stroke-width:1.0;"/></g><!--MD5=[53ba692fcb05ca2217505ce40ee56186]
link Staff to Post Interest--><g id="link_Staff_Post Interest"><path d="M72.76,546.9 C115.17,553.46 191.03,565.17 243.36,573.25 " fill="none" id="Staff-Post Interest" style="stroke:#181818;stroke-width:1.0;"/></g><!--MD5=[1bcacf42f2ae61e0af2bc075174b2feb]
link Staff to Create Customer--><g id="link_Staff_Create Customer"><path d="M72.76,538.32 C111.46,533.84 178,526.13 229.11,520.21 " fill="none" id="Staff-Create Customer" style="stroke:#181818;stroke-width:1.0;"/></g><!--MD5=[722677adc540e2df18ae1eceff391463]
link Staff to Manage Accounts--><g id="link_Staff_Manage Accounts"><path d="M72.75,562.2 C99.29,578.42 138.54,600.91 175,616 C196.6,624.94 221.16,632.54 242.77,638.41 " fill="none" id="Staff-Manage Accounts" style="stroke:#181818;stroke-width:1.0;"/></g><!--MD5=[a8ef9d56188acac5099abb0c44f160f9]
link Staff to Run Reports--><g id="link_Staff_Run Reports"><path d="M72.79,521.41 C82.61,515.44 93.58,509.15 104,504 C151.83,480.35 210.64,463.18 251.29,452.98 " fill="none" id="Staff-Run Reports" style="stroke:#181818;stroke-width:1.0;"/></g><!--MD5=[3ca236297e5d26297c255beab3ca5652]
link Open Account to Create Customer--><g id="link_Open Account_Create Customer"><path d="M241.55,364.12 C204,361.6 157.69,366.05 131,396.5 C104.64,426.58 142.4,451.84 175,475 C191.28,486.56 211.16,494.55 230.28,500.04 " fill="none" id="Open Account-to-Create Customer" style="stroke:#181818;stroke-width:1.0;stroke-dasharray:7.0,7.0;"/><polygon fill="#181818" points="235.13,501.39,227.5308,495.1248,230.3128,500.0503,225.3873,502.8323,235.13,501.39" style="stroke:#181818;stroke-width:1.0;"/><text fill="#000000" font-family="sans-serif" font-size="13" lengthAdjust="spacing" textLength="61" x="105" y="409.5669">«include»</text></g><!--MD5=[85183d9ceee7de2dbd52d8e7b2031c1a]
link Deposit Funds to View Account Balance--><g id="link_Deposit Funds_View Account Balance"><path d="M301,76.08 C301,89.01 301,107.01 301,121.89 " fill="none" id="Deposit Funds-to-View Account Balance" style="stroke:#181818;stroke-width:1.0;stroke-dasharray:7.0,7.0;"/><polygon fill="#181818" points="301,127.21,305,118.21,301,122.21,297,118.21,301,127.21" style="stroke:#181818;stroke-width:1.0;"/><text fill="#000000" font-family="sans-serif" font-size="13" lengthAdjust="spacing" textLength="61" x="259" y="106.3169">«include»</text></g><!--MD5=[d899aa7a9966eabf00d52a86bd011a3b]
@startuml
left to right direction
actor Customer
actor Staff as "BankStaff"

rectangle BankSystem {
  Customer - - (Open Account)
  Customer - - (Deposit Funds)
  Customer - - (Withdraw Funds)
  Customer - - (View Account Balance)
  Customer - - (View Transaction History)
  Staff - - (Post Interest)
  Staff - - (Create Customer)
  Staff - - (Manage Accounts)
  Staff - - (Run Reports)

  (Open Account) .> (Create Customer) : <<include>>
  (Deposit Funds) .> (View Account Balance) : <<include>>
}
@enduml

PlantUML version 1.2022.7(Mon Aug 22 17:01:30 UTC 2022)
(GPL source distribution)
Java Runtime: OpenJDK Runtime Environment
JVM: OpenJDK 64-Bit Server VM
Default Encoding: UTF-8
Language: en
Country: null
--></g></svg>